<svg width="960" height="320" viewBox="0 0 960 320" fill="none" xmlns="http://www.w3.org/2000/svg">
  <defs>
    <linearGradient id="bgGrad" x1="0" y1="0" x2="960" y2="320" gradientUnits="userSpaceOnUse">
      <stop stop-color="#0F172A"/>
      <stop offset="1" stop-color="#1E293B"/>
    </linearGradient>
    <linearGradient id="shellGrad" x1="160" y1="48" x2="160" y2="272" gradientUnits="userSpaceOnUse">
      <stop stop-color="#FDBA74"/>
      <stop offset="1" stop-color="#F97316"/>
    </linearGradient>
    <linearGradient id="eyeGrad" x1="108" y1="88" x2="208" y2="152" gradientUnits="userSpaceOnUse">
      <stop stop-color="#7DD3FC"/>
      <stop offset="1" stop-color="#2563EB"/>
    </linearGradient>
  </defs>

  <!-- Badge background -->
  <rect x="16" y="16" width="928" height="288" rx="36" fill="url(#bgGrad)"/>
  <rect x="16" y="16" width="928" height="288" rx="36" stroke="#334155" stroke-width="2"/>

  <!-- Left icon chip -->
  <rect x="40" y="40" width="240" height="240" rx="28" fill="#111827"/>
  <rect x="40" y="40" width="240" height="240" rx="28" stroke="#374151" stroke-width="2"/>

  <!-- Crab mark -->
  <path d="M90 126C76 103 78 76 96 61C114 47 141 51 159 72C138 75 123 86 113 103C106 115 102 122 90 126Z" fill="url(#shellGrad)" stroke="#431407" stroke-width="10" stroke-linejoin="round"/>
  <path d="M230 126C244 103 242 76 224 61C206 47 179 51 161 72C182 75 197 86 207 103C214 115 218 122 230 126Z" fill="url(#shellGrad)" stroke="#431407" stroke-width="10" stroke-linejoin="round"/>
  <path d="M104 160C104 122 130 92 160 92C190 92 216 122 216 160V178C216 214 190 242 160 242C130 242 104 214 104 178V160Z" fill="url(#shellGrad)" stroke="#431407" stroke-width="10"/>
  <path d="M136 102C136 86 143 73 155 64" stroke="#431407" stroke-width="8" stroke-linecap="round"/>
  <path d="M184 102C184 86 177 73 165 64" stroke="#431407" stroke-width="8" stroke-linecap="round"/>
  <circle cx="132" cy="104" r="20" fill="url(#eyeGrad)" stroke="#431407" stroke-width="8"/>
  <circle cx="188" cy="104" r="20" fill="url(#eyeGrad)" stroke="#431407" stroke-width="8"/>
  <circle cx="125" cy="98" r="5" fill="white" fill-opacity="0.9"/>
  <circle cx="181" cy="98" r="5" fill="white" fill-opacity="0.9"/>
  <path d="M126 164C138 187 152 198 160 198C168 198 182 187 194 164" fill="#7F1D1D" stroke="#431407" stroke-width="8" stroke-linecap="round" stroke-linejoin="round"/>
  <circle cx="144" cy="160" r="6" fill="#FFF7ED"/>
  <path d="M142 144C153 144 162 153 162 164" stroke="#FFF7ED" stroke-width="7" stroke-linecap="round"/>
  <path d="M132 134C155 134 174 153 174 176" stroke="#FFF7ED" stroke-width="7" stroke-linecap="round"/>

  <!-- Text block -->
  <text x="320" y="125" fill="#F8FAFC" font-family="Arial, Helvetica, sans-serif" font-size="64" font-weight="700" letter-spacing="1">Feedclaw</text>
  <text x="320" y="170" fill="#CBD5E1" font-family="Arial, Helvetica, sans-serif" font-size="24" font-weight="500">RSS / Atom reader + AI digest builder</text>

  <!-- Small feature pills -->
  <rect x="320" y="204" width="110" height="34" rx="17" fill="#1D4ED8" fill-opacity="0.22"/>
  <text x="342" y="226" fill="#BFDBFE" font-family="Arial, Helvetica, sans-serif" font-size="16" font-weight="700">SQLite</text>

  <rect x="442" y="204" width="120" height="34" rx="17" fill="#EA580C" fill-opacity="0.2"/>
  <text x="468" y="226" fill="#FED7AA" font-family="Arial, Helvetica, sans-serif" font-size="16" font-weight="700">RSS/Atom</text>

  <rect x="574" y="204" width="96" height="34" rx="17" fill="#0891B2" fill-opacity="0.2"/>
  <text x="604" y="226" fill="#CFFAFE" font-family="Arial, Helvetica, sans-serif" font-size="16" font-weight="700">AI</text>

  <rect x="682" y="204" width="104" height="34" rx="17" fill="#16A34A" fill-opacity="0.2"/>
  <text x="708" y="226" fill="#DCFCE7" font-family="Arial, Helvetica, sans-serif" font-size="16" font-weight="700">OPML</text>

  <!-- Decorative feed arcs -->
  <circle cx="866" cy="98" r="6" fill="#F97316"/>
  <path d="M846 78C868 78 886 96 886 118" stroke="#F97316" stroke-width="8" stroke-linecap="round"/>
  <path d="M824 56C858 56 906 86 906 140" stroke="#F97316" stroke-width="8" stroke-linecap="round"/>
</svg>
